<svg width="68" height="19" viewBox="0 0 68 19" fill="none" xmlns="http://www.w3.org/2000/svg">
<path d="M47.5376 6.61719C47.4912 6.183 47.2957 5.84493 46.951 5.60298C46.6096 5.36103 46.1655 5.24006 45.6186 5.24006C45.2341 5.24006 44.9044 5.29806 44.6293 5.41406C44.3542 5.53007 44.1437 5.6875 43.9979 5.88636C43.852 6.08523 43.7775 6.31226 43.7741 6.56747C43.7741 6.77959 43.8222 6.96354 43.9183 7.11932C44.0178 7.27509 44.152 7.40767 44.321 7.51705C44.4901 7.62311 44.6773 7.71259 44.8828 7.78551C45.0883 7.85843 45.2955 7.91974 45.5043 7.96946L46.4588 8.2081C46.8433 8.29758 47.2128 8.41856 47.5675 8.57102C47.9254 8.72348 48.2453 8.91572 48.527 9.14773C48.812 9.37973 49.0374 9.6598 49.2031 9.98793C49.3688 10.3161 49.4517 10.7005 49.4517 11.1413C49.4517 11.7379 49.2992 12.2633 48.9943 12.7173C48.6894 13.1681 48.2486 13.5211 47.6719 13.7763C47.0985 14.0282 46.4041 14.1541 45.5888 14.1541C44.7966 14.1541 44.1089 14.0315 43.5256 13.7862C42.9455 13.541 42.4915 13.183 42.1634 12.7124C41.8385 12.2417 41.6629 11.6683 41.6364 10.9922H43.451C43.4775 11.3468 43.5869 11.6418 43.7791 11.8771C43.9714 12.1125 44.2216 12.2881 44.5298 12.4041C44.8414 12.5201 45.1894 12.5781 45.5739 12.5781C45.9749 12.5781 46.3262 12.5185 46.6278 12.3991C46.9328 12.2765 47.1714 12.1075 47.3438 11.892C47.5161 11.6733 47.6039 11.4181 47.6072 11.1264C47.6039 10.8613 47.526 10.6425 47.3736 10.4702C47.2211 10.2945 47.0073 10.1487 46.7322 10.0327C46.4605 9.91335 46.1423 9.80729 45.7777 9.71449L44.6193 9.41619C43.7808 9.20076 43.1179 8.87429 42.6307 8.43679C42.1468 7.99598 41.9048 7.41098 41.9048 6.68182C41.9048 6.08191 42.0672 5.55658 42.392 5.10582C42.7202 4.65507 43.166 4.3054 43.7294 4.05682C44.2929 3.80492 44.9309 3.67898 45.6435 3.67898C46.366 3.67898 46.9991 3.80492 47.5426 4.05682C48.0895 4.3054 48.5187 4.65175 48.8303 5.09588C49.1418 5.53669 49.3026 6.0438 49.3125 6.61719H47.5376ZM53.214 14.1541C52.7301 14.1541 52.2942 14.0679 51.9064 13.8956C51.522 13.7199 51.217 13.4614 50.9917 13.12C50.7696 12.7786 50.6586 12.3577 50.6586 11.8572C50.6586 11.4264 50.7381 11.0701 50.8972 10.7884C51.0563 10.5066 51.2734 10.2812 51.5485 10.1122C51.8236 9.94318 52.1335 9.81558 52.4782 9.7294C52.8262 9.63991 53.1858 9.57528 53.557 9.53551C54.0044 9.48911 54.3674 9.44768 54.6458 9.41122C54.9242 9.37145 55.1264 9.31179 55.2523 9.23224C55.3816 9.14938 55.4462 9.02178 55.4462 8.84943V8.8196C55.4462 8.44508 55.3352 8.15507 55.1131 7.94957C54.891 7.74408 54.5712 7.64134 54.1536 7.64134C53.7128 7.64134 53.3631 7.73745 53.1046 7.92969C52.8494 8.12192 52.677 8.34896 52.5875 8.6108L50.9071 8.37216C51.0397 7.90814 51.2585 7.52036 51.5634 7.20881C51.8683 6.89394 52.2412 6.65862 52.682 6.50284C53.1228 6.34375 53.61 6.2642 54.1436 6.2642C54.5115 6.2642 54.8778 6.30729 55.2424 6.39347C55.6069 6.47964 55.94 6.62216 56.2417 6.82102C56.5433 7.01657 56.7852 7.28338 56.9675 7.62145C57.1531 7.95952 57.2459 8.3821 57.2459 8.8892V14H55.5158V12.951H55.4561C55.3468 13.1631 55.1926 13.362 54.9938 13.5476C54.7982 13.7299 54.5513 13.8774 54.253 13.9901C53.958 14.0994 53.6117 14.1541 53.214 14.1541ZM53.6813 12.8317C54.0426 12.8317 54.3558 12.7604 54.6209 12.6179C54.8861 12.4721 55.0899 12.2798 55.2324 12.0412C55.3783 11.8026 55.4512 11.5424 55.4512 11.2607V10.3608C55.3948 10.4072 55.2987 10.4503 55.1628 10.4901C55.0302 10.5298 54.8811 10.5646 54.7154 10.5945C54.5497 10.6243 54.3856 10.6508 54.2232 10.674C54.0608 10.6972 53.9199 10.7171 53.8006 10.7337C53.5321 10.7701 53.2918 10.8298 53.0797 10.9126C52.8676 10.9955 52.7002 11.1115 52.5776 11.2607C52.455 11.4065 52.3936 11.5954 52.3936 11.8274C52.3936 12.1589 52.5146 12.4091 52.7566 12.5781C52.9985 12.7472 53.3068 12.8317 53.6813 12.8317ZM59.0556 14V6.36364H60.8553V14H59.0556ZM59.9604 5.27983C59.6754 5.27983 59.4301 5.18537 59.2246 4.99645C59.0191 4.80421 58.9164 4.57386 58.9164 4.3054C58.9164 4.03362 59.0191 3.80327 59.2246 3.61435C59.4301 3.42211 59.6754 3.32599 59.9604 3.32599C60.2488 3.32599 60.494 3.42211 60.6962 3.61435C60.9017 3.80327 61.0044 4.03362 61.0044 4.3054C61.0044 4.57386 60.9017 4.80421 60.6962 4.99645C60.494 5.18537 60.2488 5.27983 59.9604 5.27983ZM62.706 14V6.36364H64.451V7.63636H64.5305C64.6697 7.19555 64.9084 6.85582 65.2464 6.61719C65.5878 6.37524 65.9773 6.25426 66.4148 6.25426C66.5142 6.25426 66.6252 6.25923 66.7479 6.26918C66.8738 6.2758 66.9782 6.2874 67.0611 6.30398V7.95952C66.9848 7.933 66.8639 7.9098 66.6982 7.88991C66.5357 7.86671 66.3783 7.85511 66.2259 7.85511C65.8977 7.85511 65.6027 7.92637 65.3409 8.06889C65.0824 8.2081 64.8786 8.40199 64.7294 8.65057C64.5803 8.89915 64.5057 9.18584 64.5057 9.51065V14H62.706Z" fill="white"/>
<path d="M7.125 8.70833H13.5969L11.5781 6.68958L12.6667 5.54167L16.625 9.5L12.6667 13.4583L11.5781 12.3104L13.5969 10.2917H7.125V8.70833ZM9.5 2.375V3.95833H3.95833V15.0417H9.5V16.625H3.95833C3.52292 16.625 3.15004 16.4701 2.83971 16.1603C2.5299 15.85 2.375 15.4771 2.375 15.0417V3.95833C2.375 3.52292 2.5299 3.15004 2.83971 2.83971C3.15004 2.5299 3.52292 2.375 3.95833 2.375H9.5Z" fill="#F8F8F8"/>
</svg>
