<svg width="19" height="15" viewBox="0 0 30 25" fill="none" xmlns="http://www.w3.org/2000/svg">
<path d="M29.8516 8.18056L28.2761 2.11111C27.9459 0.861111 26.7756 0 25.4101 0H4.56842C3.21799 0 2.03261 0.875 1.71751 2.11111L0.141999 8.18056C-0.218117 9.59722 0.111989 11.0417 1.0723 12.1806C1.19234 12.3333 1.35739 12.4444 1.49243 12.5833V22.2222C1.49243 23.75 2.84287 25 4.4934 25H25.5002C27.1507 25 28.5011 23.75 28.5011 22.2222V12.5833C28.6362 12.4583 28.8012 12.3333 28.9213 12.1944C29.8816 11.0556 30.2267 9.59722 29.8516 8.18056ZM25.3651 2.76389L26.9406 8.83333C27.0907 9.41667 26.9556 10 26.5655 10.4583C26.3554 10.7083 25.9053 11.1111 25.1551 11.1111C24.2398 11.1111 23.4445 10.4306 23.3395 9.52778L22.4692 2.77778L25.3651 2.76389ZM16.4973 2.77778H19.4382L20.2485 9.05556C20.3235 9.59722 20.1434 10.1389 19.7533 10.5417C19.4232 10.9028 18.943 11.1111 18.3279 11.1111C17.3225 11.1111 16.4973 10.2917 16.4973 9.29167V2.77778ZM9.73008 9.05556L10.5553 2.77778H13.4963V9.29167C13.4963 10.2917 12.671 11.1111 11.5607 11.1111C11.0505 11.1111 10.5854 10.9028 10.2252 10.5417C9.85012 10.1389 9.67006 9.59722 9.73008 9.05556ZM3.05294 8.83333L4.56842 2.77778H7.52437L6.65409 9.52778C6.53406 10.4306 5.7538 11.1111 4.83851 11.1111C4.10327 11.1111 3.63812 10.7083 3.44306 10.4583C3.03793 10.0139 2.90289 9.41667 3.05294 8.83333ZM4.4934 22.2222V13.8472C4.61344 13.8611 4.71847 13.8889 4.83851 13.8889C6.14393 13.8889 7.32931 13.3889 8.19959 12.5694C9.09988 13.4028 10.3003 13.8889 11.6657 13.8889C12.9711 13.8889 14.1415 13.3889 15.0118 12.5972C15.8971 13.3889 17.0975 13.8889 18.4479 13.8889C19.7083 13.8889 20.9087 13.4028 21.809 12.5694C22.6793 13.3889 23.8646 13.8889 25.1701 13.8889C25.2901 13.8889 25.3951 13.8611 25.5152 13.8472V22.2222H4.4934Z" fill="white"/>
</svg>
